<?xml version="1.0" standalone="no"?>
<!DOCTYPE svg PUBLIC "-//W3C//DTD SVG 20010904//EN"
 "http://www.w3.org/TR/2001/REC-SVG-20010904/DTD/svg10.dtd">
<svg version="1.0" xmlns="http://www.w3.org/2000/svg"
 width="800.000000pt" height="800.000000pt" viewBox="0 0 800.000000 800.000000"
 preserveAspectRatio="xMidYMid meet">
<metadata>
Created by potrace 1.11, written by Peter Selinger 2001-2013
</metadata>
<g transform="translate(0.000000,800.000000) scale(0.100000,-0.100000)"
fill="#000000" stroke="none">
<path d="M3947 7464 c-1 -1 -81 -4 -177 -8 -96 -4 -188 -8 -205 -10 -16 -2
-61 -6 -100 -10 -38 -4 -81 -8 -95 -11 -14 -2 -47 -7 -75 -10 -27 -3 -61 -7
-75 -10 -14 -2 -43 -7 -65 -10 -22 -3 -62 -10 -90 -15 -27 -5 -63 -12 -80 -15
-16 -3 -41 -8 -55 -11 -213 -42 -575 -151 -803 -243 -172 -69 -482 -221 -597
-293 -257 -161 -439 -295 -599 -443 -308 -284 -506 -543 -671 -880 -126 -255
-211 -547 -239 -815 -23 -232 -2 -562 50 -754 6 -23 13 -48 14 -56 40 -188
192 -533 326 -740 325 -499 816 -916 1434 -1215 93 -45 220 -102 280 -125 61
-24 124 -48 140 -55 47 -20 240 -81 355 -113 92 -26 145 -40 225 -57 168 -36
266 -55 340 -65 50 -7 94 -16 99 -21 4 -4 9 -220 10 -481 l1 -473 677 0 678 0
0 105 c0 58 0 272 0 476 l0 372 56 7 c31 4 66 8 78 10 168 29 222 39 318 61
62 14 120 27 128 29 8 1 35 8 60 15 25 7 54 14 65 16 11 2 31 8 45 13 49 19
202 63 205 59 2 -1 20 -39 40 -83 21 -44 58 -123 82 -175 25 -52 62 -131 83
-175 21 -44 61 -129 90 -190 29 -60 64 -135 77 -165 14 -30 57 -120 94 -199
38 -79 69 -147 69 -152 0 -4 8 -12 18 -17 13 -6 1517 -10 1529 -3 2 0 -8 20
-21 43 -13 24 -54 102 -91 173 -37 72 -82 157 -100 190 -18 33 -63 119 -100
190 -37 72 -110 211 -162 310 -108 204 -182 346 -273 520 -34 66 -87 166 -116
221 -30 56 -54 104 -54 107 0 3 28 27 63 53 155 119 345 295 474 441 380 432
598 907 659 1433 16 138 11 425 -10 552 -3 21 -9 55 -12 75 -77 507 -373 1043
-808 1463 -210 203 -404 351 -670 512 -441 266 -1007 474 -1541 568 -33 5 -71
12 -84 15 -12 2 -44 7 -70 10 -25 3 -59 7 -76 10 -43 8 -128 17 -260 30 -67 6
-483 23 -488 19z m988 -1188 c77 -4 154 -9 170 -11 17 -2 57 -7 90 -10 74 -7
221 -25 255 -31 14 -2 41 -7 60 -10 148 -22 447 -96 580 -143 143 -50 165 -59
269 -105 529 -238 889 -610 1047 -1081 19 -59 37 -115 39 -124 53 -242 60
-301 60 -536 0 -188 -5 -251 -25 -369 -6 -34 -13 -70 -14 -81 -6 -31 -25 -103
-48 -175 -99 -317 -291 -594 -563 -815 -88 -72 -289 -205 -308 -205 -6 0 -24
11 -41 24 -40 30 -219 115 -315 150 -111 40 -112 41 -17 59 115 23 253 70 359
123 86 43 222 129 256 162 9 10 32 31 51 47 105 93 222 252 285 388 133 291
174 672 110 1037 -34 199 -138 429 -255 565 -183 214 -425 353 -750 431 -70
17 -169 18 -1506 21 l-1432 4 0 -1606 c0 -883 -2 -1608 -5 -1611 -5 -5 -199
66 -307 112 -113 48 -331 164 -443 235 -823 522 -1151 1311 -852 2048 65 159
109 238 215 382 268 362 705 673 1231 873 137 52 383 128 458 141 19 3 37 8
41 10 7 5 8 5 190 38 74 14 160 28 190 31 30 4 71 9 90 11 49 7 119 13 235 21
55 3 101 7 102 7 4 5 375 -1 498 -7z m654 -1796 c202 -50 309 -245 271 -497
-27 -178 -128 -295 -292 -339 -34 -9 -168 -12 -476 -13 l-429 -1 0 429 c0 428
1 430 21 433 59 8 866 -2 905 -12z m-491 -1990 c56 -25 139 -110 197 -199 26
-40 45 -74 43 -76 -4 -4 -60 -12 -138 -20 -36 -3 -83 -8 -105 -10 -36 -4 -233
-14 -367 -19 -29 -1 -59 0 -65 2 -10 3 -13 47 -13 173 l0 169 203 0 c178 0
207 -3 245 -20z"/>
</g>
</svg>
