<?xml version="1.0" standalone="no"?>
<!DOCTYPE svg PUBLIC "-//W3C//DTD SVG 20010904//EN"
 "http://www.w3.org/TR/2001/REC-SVG-20010904/DTD/svg10.dtd">
<svg version="1.0" xmlns="http://www.w3.org/2000/svg"
 width="724.000000pt" height="724.000000pt" viewBox="0 0 724.000000 724.000000"
 preserveAspectRatio="xMidYMid meet">
<metadata>
Created by potrace 1.11, written by Peter Selinger 2001-2013
</metadata>
<g transform="translate(0.000000,724.000000) scale(0.100000,-0.100000)"
fill="#000000" stroke="none">
<path d="M3348 6385 c-3 -3 -105 -11 -268 -21 -25 -1 -45 -3 -45 -4 0 -1 -13
-3 -30 -5 -35 -3 -117 -14 -160 -21 -16 -3 -46 -7 -65 -9 -19 -2 -35 -5 -35
-5 0 -1 -11 -3 -25 -5 -14 -2 -36 -6 -50 -9 -47 -10 -125 -26 -150 -30 -14 -3
-45 -10 -70 -16 -25 -6 -56 -13 -70 -16 -14 -2 -33 -7 -42 -10 -9 -3 -25 -7
-35 -9 -10 -2 -65 -18 -123 -35 -58 -17 -109 -32 -115 -34 -5 -2 -17 -6 -25
-9 -8 -3 -44 -15 -79 -27 -75 -25 -228 -84 -288 -111 -23 -10 -45 -19 -48 -19
-10 0 -287 -141 -360 -183 -106 -61 -365 -234 -385 -256 -3 -4 -43 -38 -90
-77 -156 -130 -357 -347 -444 -479 -14 -22 -30 -45 -36 -52 -19 -22 -136 -238
-154 -283 -10 -25 -23 -56 -29 -70 -6 -14 -11 -27 -11 -30 -1 -3 -7 -18 -13
-35 -14 -36 -50 -165 -59 -215 -25 -134 -29 -184 -28 -335 0 -125 8 -260 14
-260 1 0 4 -16 7 -35 7 -56 42 -186 64 -243 11 -29 21 -54 22 -57 10 -51 117
-262 188 -371 34 -52 65 -96 68 -99 4 -3 18 -21 31 -40 59 -85 199 -234 325
-346 292 -259 631 -461 1070 -637 148 -59 477 -162 577 -181 13 -2 41 -9 63
-14 22 -6 51 -13 65 -16 14 -3 50 -10 80 -16 64 -13 80 -16 140 -25 25 -4 56
-9 70 -11 51 -10 76 -14 124 -19 49 -5 76 -18 59 -28 -4 -3 -7 -172 -5 -376
l2 -371 615 0 615 0 0 379 c0 209 3 382 8 384 4 3 37 8 74 11 37 4 77 9 90 12
13 2 37 6 53 8 17 2 57 9 90 15 33 6 76 13 95 16 19 3 53 11 75 16 22 6 49 13
60 15 28 6 89 18 98 20 4 1 8 3 10 4 1 1 11 4 22 6 11 2 38 8 60 14 22 6 47
12 55 14 8 3 27 9 42 15 15 6 29 7 32 3 5 -9 88 -165 134 -252 43 -83 72 -137
152 -285 35 -66 62 -120 60 -121 -3 0 1 -8 8 -17 8 -9 31 -49 52 -89 21 -40
49 -93 62 -118 l25 -45 691 -3 c393 -1 692 2 692 7 0 4 -25 50 -55 100 -30 51
-55 96 -55 101 0 6 -4 10 -10 10 -5 0 -10 6 -10 14 0 8 -6 21 -14 28 -7 8 -21
30 -31 48 -10 19 -30 53 -44 75 -14 22 -26 42 -26 45 0 3 -8 16 -17 30 -19 28
-285 476 -333 560 -40 70 -182 307 -203 340 -28 43 -24 55 27 88 193 125 468
372 596 536 17 21 38 48 48 60 37 42 146 213 191 297 139 265 198 497 200 784
1 235 -22 380 -91 570 -13 39 -27 79 -31 89 -15 52 -152 307 -194 361 -4 6
-31 42 -59 80 -124 166 -300 345 -476 481 -48 38 -89 72 -91 76 -2 5 -8 8 -14
8 -6 0 -27 13 -47 28 -68 54 -256 166 -396 238 -139 71 -364 173 -397 179 -9
2 -25 8 -35 13 -67 35 -490 162 -628 188 -11 2 -29 6 -40 8 -148 32 -192 40
-297 55 -160 24 -187 27 -413 47 -67 6 -651 14 -657 9z m1172 -949 c109 -5
148 -8 265 -22 28 -4 64 -7 80 -9 49 -4 127 -15 180 -25 28 -6 68 -12 90 -16
22 -3 48 -7 57 -10 10 -3 30 -8 45 -10 16 -3 48 -10 73 -15 25 -6 53 -12 63
-14 10 -2 32 -9 50 -14 18 -6 82 -26 142 -45 169 -52 413 -156 458 -194 9 -8
17 -12 17 -8 0 7 201 -128 244 -165 172 -145 285 -285 374 -464 40 -81 88
-212 98 -269 3 -17 9 -49 14 -71 32 -145 32 -428 0 -580 -6 -27 -13 -61 -15
-75 -7 -34 -68 -214 -75 -220 -3 -3 -16 -30 -30 -60 -21 -48 -59 -114 -83
-145 -4 -5 -26 -35 -49 -65 -64 -84 -227 -239 -318 -300 -44 -30 -86 -60 -93
-66 -7 -5 -25 -17 -42 -25 -16 -9 -55 -29 -86 -47 -32 -17 -60 -27 -65 -22
-17 16 -177 92 -219 104 -11 3 -58 19 -103 35 -89 31 -89 30 -2 45 14 2 48 10
75 16 28 6 57 13 66 15 8 2 32 10 52 19 20 8 37 13 37 11 0 -6 104 40 175 77
164 86 307 211 400 352 30 46 59 94 64 107 5 13 17 42 27 64 10 22 18 42 19
45 1 3 4 12 7 20 13 36 27 87 32 115 3 17 8 44 11 60 22 116 23 373 2 455 -4
14 -9 38 -11 53 -8 46 -37 141 -48 155 -6 6 -8 12 -4 12 10 0 -42 98 -90 172
-82 124 -224 249 -359 317 -74 36 -156 73 -170 75 -5 1 -14 4 -20 8 -14 8
-111 34 -175 47 -30 6 -66 14 -80 18 -14 4 -609 9 -1322 10 l-1298 4 0 -1291
0 -1290 -22 4 c-40 8 -243 78 -255 88 -7 6 -13 7 -13 4 0 -4 -12 -1 -27 7 -16
8 -57 27 -93 42 -168 70 -467 237 -478 266 -2 5 -10 9 -18 9 -8 0 -14 4 -14 8
0 4 -12 15 -27 24 -39 23 -75 53 -156 128 -127 118 -217 226 -290 349 -41 69
-104 210 -112 251 -2 8 -4 16 -5 18 -2 1 -4 7 -5 12 -1 6 -4 12 -5 15 -3 7 -5
13 -15 70 -4 28 -10 57 -12 65 -6 26 -5 223 2 260 3 19 13 64 21 100 9 36 17
72 19 80 3 15 32 84 63 150 66 143 198 313 348 448 88 79 96 86 134 112 19 13
37 27 40 30 9 9 123 86 155 104 17 9 53 30 80 46 54 31 183 96 255 128 106 47
367 142 432 157 13 2 74 18 136 34 63 17 129 32 148 35 18 3 53 10 76 15 24 5
61 12 83 15 23 4 50 8 61 10 25 5 117 18 159 22 17 1 53 5 81 8 28 3 95 8 149
11 55 4 101 7 102 9 4 4 425 -2 543 -8z m612 -1459 c65 -33 100 -64 133 -122
33 -55 39 -86 39 -185 -1 -96 -5 -116 -35 -174 -40 -78 -109 -132 -199 -157
-64 -17 -110 -20 -265 -17 -11 0 -40 -1 -65 -2 -25 -1 -74 -1 -110 -1 -36 0
-73 1 -82 1 -10 0 -26 0 -35 1 -62 2 -235 0 -250 -2 -42 -7 -44 -2 -42 96 1
53 0 97 -2 100 -2 2 -2 38 1 80 3 42 3 78 0 80 -3 2 -4 78 -2 170 l3 166 427
-3 427 -3 57 -28z m-505 -1579 c59 -32 97 -67 158 -146 45 -57 53 -72 38 -73
-10 0 -31 -2 -48 -5 -16 -2 -64 -6 -105 -8 -41 -3 -75 -6 -75 -6 0 -3 -140 -9
-255 -12 l-125 -3 -3 138 -3 138 190 -1 c171 -1 193 -3 228 -22z"/>
</g>
</svg>
